<?xml version="1.0" encoding="UTF-8"?>
<svg id="Layer_2" data-name="Layer 2" xmlns="http://www.w3.org/2000/svg" xmlns:xlink="http://www.w3.org/1999/xlink" viewBox="0 0 300 199.93">
  <defs>
    <style>
      .cls-1 {
        fill: url(#linear-gradient-2);
      }

      .cls-2 {
        fill: gray;
      }

      .cls-3 {
        fill: #808083;
      }

      .cls-4 {
        fill: none;
      }

      .cls-5 {
        fill: url(#linear-gradient-4);
      }

      .cls-6 {
        fill: url(#linear-gradient-3);
      }

      .cls-7 {
        fill: url(#linear-gradient-5);
      }

      .cls-8 {
        fill: url(#linear-gradient-6);
      }

      .cls-9 {
        fill: url(#linear-gradient);
      }
    </style>
    <linearGradient id="linear-gradient" x1="150" y1="-10.51" x2="150" y2="45.74" gradientUnits="userSpaceOnUse">
      <stop offset="0" stop-color="#faaf40"/>
      <stop offset="1" stop-color="#ef6541"/>
    </linearGradient>
    <linearGradient id="linear-gradient-2" x1="340.71" y1="133.38" x2="-17.04" y2="133.38" xlink:href="#linear-gradient"/>
    <linearGradient id="linear-gradient-3" x1="340.71" y1="138.11" x2="-17.04" y2="138.11" xlink:href="#linear-gradient"/>
    <linearGradient id="linear-gradient-4" x1="340.71" y1="137.75" x2="-17.04" y2="137.75" xlink:href="#linear-gradient"/>
    <linearGradient id="linear-gradient-5" x1="340.71" y1="134.2" x2="-17.04" y2="134.2" xlink:href="#linear-gradient"/>
    <linearGradient id="linear-gradient-6" x1="340.71" y1="133.07" x2="-17.04" y2="133.07" xlink:href="#linear-gradient"/>
  </defs>
  <g id="Layer_1-2" data-name="Layer 1">
    <g>
      <g>
        <path class="cls-3" d="M75.5,177.59h3.82v18.52h11.09v3.3h-14.92v-21.82Z"/>
        <path class="cls-3" d="M105.26,177.59h3.82v21.82h-3.82v-21.82Z"/>
        <path class="cls-3" d="M123.51,177.59h3.97l5.47,17.27h.06l5.59-17.27h3.88l-7.46,21.82h-4.25l-7.27-21.82Z"/>
        <path class="cls-3" d="M156.88,177.59h3.82v21.82h-3.82v-21.82Z"/>
        <path class="cls-3" d="M177.45,177.59h4.03l9.96,16.08h.06v-16.08h3.64v21.82h-4.03l-9.93-16.05h-.09v16.05h-3.64v-21.82Z"/>
        <path class="cls-3" d="M230.93,199.41h-2.44l-.58-2.57c-2.05,2.32-3.91,3.09-6.57,3.09-6.54,0-10.45-5.2-10.45-11.43s3.91-11.43,10.45-11.43c4.77,0,8.77,2.54,9.35,7.46h-3.73c-.37-2.87-2.87-4.34-5.62-4.34-4.68,0-6.63,4.13-6.63,8.31s1.96,8.31,6.63,8.31c3.91.06,6.05-2.29,6.11-5.99h-5.81v-2.9h9.29v11.49Z"/>
      </g>
      <g>
        <polygon class="cls-4" points="143.75 25 150 0 143.75 25 143.75 25"/>
        <polygon class="cls-3" points="143.75 75 150 100 143.75 75 143.75 75"/>
        <polygon class="cls-4" points="156.25 25 150 0 156.25 25 156.25 25"/>
        <polygon class="cls-3" points="156.25 75 150 100 156.25 75 156.25 75"/>
        <polygon class="cls-3" points="133.33 66.67 133.33 58.33 133.33 58.33 133.33 41.67 133.33 33.33 141.67 33.33 134.8 25 125 25 125 43.75 100 50 125 56.25 125 75 134.8 75 141.67 66.67 133.33 66.67"/>
        <polygon class="cls-3" points="156.25 75 158.33 66.67 158.33 66.67 158.33 66.67 158.33 66.67 141.67 46.44 141.67 66.67 141.67 66.67 143.75 75 143.75 75 150 100 156.25 75 156.25 75"/>
        <polygon class="cls-3" points="166.67 33.33 166.67 41.67 166.67 41.67 166.67 58.33 166.67 58.33 166.67 66.67 158.33 66.67 165.2 75 175 75 175 56.25 200 50 175 43.75 175 25 165.2 25 158.33 33.33 166.67 33.33"/>
        <polygon class="cls-2" points="158.33 33.33 156.25 25 156.25 25 158.33 33.33 158.33 33.33 158.33 33.33"/>
        <rect class="cls-2" x="142.71" y="24.87" width="0" height="8.59"/>
        <polygon class="cls-9" points="141.67 33.33 141.67 33.33 158.33 53.56 158.33 33.33 156.25 25 150 0 143.75 25 141.67 33.33"/>
      </g>
      <g>
        <g>
          <path class="cls-1" d="M0,115.02h8.85l21.86,27.57h.1v-27.57h7.41v36.73h-8.69l-22.02-27.57h-.1v27.57H0v-36.73Z"/>
          <path class="cls-6" d="M60.55,123.45c12.19,0,16.87,7.15,16.87,14.66s-4.68,14.66-16.87,14.66-16.87-7.1-16.87-14.66,4.68-14.66,16.87-14.66ZM60.55,147.32c6.84,0,9.47-4.48,9.47-9.21s-2.62-9.21-9.47-9.21-9.47,4.48-9.47,9.21,2.62,9.21,9.47,9.21Z"/>
          <path class="cls-5" d="M81.99,124.48h7.1v5.3h.1c1.95-3.09,4.78-6.02,10.29-6.02,1.08,0,1.85.1,2.83.26v7c-2.01-.62-3.29-.67-4.53-.67-3.6,0-8.69,1.85-8.69,8.23v13.17h-7.1v-27.27Z"/>
          <path class="cls-7" d="M108.02,129.63h-5.66v-5.14h5.66v-8.44h7.1v8.44h7.41v5.14h-7.41v12.45c0,3.14.15,4.84,2.57,4.84,1.8,0,3.4-.05,5.09-.1v5.14c-1.9.26-3.24.41-5.45.41-8.64,0-9.31-3.09-9.31-8.23v-14.51Z"/>
          <path class="cls-8" d="M126.75,114.4h7.1v14.2h.1c2.32-2.93,5.86-4.84,10.75-4.84,5.92,0,11.58,2.06,11.58,9.47v18.52h-7.1v-16.26c0-2.93-.98-6.28-6.84-6.28-3.7,0-8.49,2.06-8.49,7.87v14.66h-7.1v-37.35Z"/>
        </g>
        <path class="cls-3" d="M162.91,115.02h7.72v30.66h22.33v6.07h-30.04v-36.73Z"/>
        <path class="cls-3" d="M196.55,114.4h7.1v5.76h-7.1v-5.76ZM196.55,124.48h7.1v27.27h-7.1v-27.27Z"/>
        <path class="cls-3" d="M241.77,124.38v26.44c0,6.43-4.17,12.24-16.21,12.24-8.44,0-15.43-1.9-16-8.9h7.41c.67,3.55,4.12,4.06,8.39,4.06,8.13,0,9.31-4.32,9.31-7.87v-3.29h-.15c-3.45,3.29-6.95,4.37-11.11,4.37-7.2,0-15.18-3.65-15.18-13.79,0-7,4.58-13.89,15.12-13.89,5.56,0,9.57,1.75,11.21,4.63h.1v-4.01h7.1ZM225.51,145.99c5.4,0,9.16-3.45,9.16-8.54,0-6.58-6.07-8.23-9.77-8.23-5.35,0-9.26,3.45-9.26,8.33,0,4.01,2.42,8.44,9.88,8.44Z"/>
        <path class="cls-3" d="M247.74,114.4h7.1v14.2h.1c2.32-2.93,5.86-4.84,10.75-4.84,5.92,0,11.58,2.06,11.58,9.47v18.52h-7.1v-16.26c0-2.93-.98-6.28-6.84-6.28-3.7,0-8.49,2.06-8.49,7.87v14.66h-7.1v-37.35Z"/>
        <path class="cls-3" d="M285.24,129.63h-5.66v-5.14h5.66v-8.44h7.1v8.44h7.41v5.14h-7.41v12.45c0,3.14.15,4.84,2.57,4.84,1.8,0,3.4-.05,5.09-.1v5.14c-1.9.26-3.24.41-5.45.41-8.64,0-9.31-3.09-9.31-8.23v-14.51Z"/>
      </g>
    </g>
  </g>
</svg>